<?xml version="1.0" encoding="utf-8"?>
<!-- Generator: Adobe Illustrator 27.1.1, SVG Export Plug-In . SVG Version: 6.00 Build 0)  -->
<svg version="1.1" id="Group_16" xmlns="http://www.w3.org/2000/svg" xmlns:xlink="http://www.w3.org/1999/xlink" x="0px" y="0px"
	 viewBox="0 0 29.5 23.6" style="enable-background:new 0 0 29.5 23.6;" xml:space="preserve">
<style type="text/css">
	.st0{fill:#040504;}
</style>
<g>
	<path class="st0" d="M28.9,18.1c0-0.1-0.1-0.2-0.1-0.2c-0.1-0.1-0.3-0.2-0.5-0.2l0,0l-22.3,0L6.3,0.8c0-0.1,0-0.2,0-0.3
		c0-0.1-0.1-0.2-0.1-0.2C6,0.1,5.8,0,5.6,0L1.3,0C1.2,0,1.1,0,1,0.1c-0.1,0-0.2,0.1-0.2,0.2C0.6,0.4,0.5,0.6,0.5,0.8l0,1.5
		c0,0.1,0,0.2,0,0.3c0,0.1,0.1,0.2,0.2,0.2C0.8,2.9,1,3,1.2,3l2.2,0L3,19.9c0,0.1,0,0.2,0,0.3c0,0.1,0.1,0.2,0.2,0.2
		c0.1,0.1,0.1,0.1,0.2,0.2c0.1,0,0.2,0.1,0.3,0.1l3.8,0c0,0.1,0,0.1-0.1,0.2s0,0.1,0,0.2c0,0.1,0,0.1,0,0.2s0,0.1,0,0.2
		c0,0.3,0,0.6,0.1,0.9c0.1,0.3,0.2,0.5,0.4,0.7c0.4,0.4,0.9,0.7,1.5,0.7c0.3,0,0.6,0,0.9-0.2c0.3-0.1,0.5-0.3,0.7-0.5
		c0.2-0.2,0.4-0.4,0.5-0.7c0.1-0.3,0.2-0.6,0.2-0.9c0,0,0,0,0,0c0,0,0,0,0,0s0,0,0,0s0,0,0,0c0-0.1,0-0.1,0-0.2s0-0.1,0-0.2
		c0-0.1,0-0.1,0-0.2s0-0.1-0.1-0.2l8.9,0c0,0.1,0,0.1-0.1,0.2s0,0.1,0,0.2c0,0.1,0,0.1,0,0.2c0,0.1,0,0.1,0,0.2c0,0.3,0,0.6,0.1,0.9
		c0.1,0.3,0.2,0.5,0.4,0.7c0.4,0.4,0.9,0.7,1.5,0.7c0.3,0,0.6,0,0.8-0.2c0.3-0.1,0.5-0.3,0.7-0.5c0.2-0.2,0.4-0.4,0.5-0.7
		c0.1-0.3,0.2-0.6,0.2-0.8c0,0,0,0,0,0s0,0,0,0s0,0,0,0s0,0,0,0c0-0.1,0-0.1,0-0.2c0-0.1,0-0.1,0-0.2c0-0.1,0-0.1,0-0.2
		c0-0.1,0-0.1-0.1-0.2l3.7,0c0.1,0,0.2,0,0.3-0.1c0.1-0.1,0.2-0.2,0.2-0.3c0.1-0.2,0.1-0.4,0.2-0.7c0.1-0.4,0.1-0.7,0.1-1.1
		C29,18.3,29,18.2,28.9,18.1z"/>
	<path class="st0" d="M27.1,16.1l0.4-13.5l-19.4,0L7.8,16.1L27.1,16.1L27.1,16.1z M22.5,10.3h-3.7l-0.1,4.3h-2.3l0.1-4.3h-3.7
		l0.1-2.2h3.7l0.1-4h2.3l-0.1,4h3.7L22.5,10.3z"/>
</g>
</svg>
