<?xml version="1.0" encoding="utf-8"?>
<!-- Generator: Adobe Illustrator 27.1.1, SVG Export Plug-In . SVG Version: 6.00 Build 0)  -->
<svg version="1.1" id="Group_16" xmlns="http://www.w3.org/2000/svg" xmlns:xlink="http://www.w3.org/1999/xlink" x="0px" y="0px"
	 viewBox="0 0 29.5 23.6" style="enable-background:new 0 0 29.5 23.6;" xml:space="preserve">
<style type="text/css">
	.st0{fill:#040504;}
</style>
<path id="Icon_metro-user_00000047036539528433027810000014722502711225865899_" d="M16.8,16.3l0.1-1.5c0.5-0.3,1-0.7,1.5-1.1
	c0.5-0.5,0.9-1,1.2-1.6c0.4-0.6,0.7-1.2,0.9-1.9c0.2-0.7,0.3-1.4,0.4-2C20.9,7.1,20.9,6,20.9,5c0-0.9-0.2-1.7-0.5-2.5
	c-0.3-0.7-0.8-1.3-1.5-1.7c-1-0.5-2-0.7-3.1-0.6c-1.1,0-2.2,0.2-3.2,0.6c-0.7,0.4-1.3,1-1.7,1.7c-0.4,0.8-0.6,1.7-0.7,2.5
	c-0.1,1-0.2,2-0.2,3.1c0,0.7,0,1.4,0.2,2c0.1,0.7,0.4,1.3,0.7,1.9c0.3,0.6,0.6,1.1,1.1,1.6c0.4,0.4,0.8,0.8,1.4,1.1l-0.1,1.5
	c-1.5,0.1-2.9,0.4-4.3,0.8c-1.2,0.4-2.4,0.9-3.5,1.6c-0.9,0.6-1.7,1.3-2.4,2.1c-0.6,0.7-0.9,1.6-1,2.6l25.4,0.1
	c0-0.9-0.2-1.8-0.7-2.6c-0.6-0.9-1.3-1.6-2.2-2.2c-1.1-0.7-2.2-1.2-3.4-1.6C19.7,16.7,18.3,16.4,16.8,16.3L16.8,16.3z"/>
</svg>
