<?xml version="1.0" encoding="utf-8"?>
<!-- Generator: Adobe Illustrator 27.1.1, SVG Export Plug-In . SVG Version: 6.00 Build 0)  -->
<svg version="1.1" id="Group_16" xmlns="http://www.w3.org/2000/svg" xmlns:xlink="http://www.w3.org/1999/xlink" x="0px" y="0px"
	 viewBox="0 0 37.9 37.2" style="enable-background:new 0 0 37.9 37.2;" xml:space="preserve">
<style type="text/css">
	.st0{fill:#040504;}
</style>
<path id="Icon_material-phone-in-talk" d="M35,25.6c-2.4,0-4.9-0.4-7.2-1.1c-0.7-0.2-1.5,0-2,0.5l-4.4,4.4
	C15.7,26.5,11,21.8,8.1,16.1l4.4-4.4c0.5-0.5,0.7-1.3,0.5-2c-0.8-2.3-1.1-4.7-1.1-7.2c0-1.1-0.9-2-2-2h-7c-1.1,0-2,0.9-2,2
	c0,18.9,15.3,34.2,34.2,34.2c0,0,0,0,0,0c1.1,0,2-0.9,2-2v-7C37,26.5,36.1,25.6,35,25.6z M33,18.6h4c0-10-8.1-18.1-18.1-18.1v4
	C26.7,4.5,33,10.8,33,18.6C33,18.6,33,18.6,33,18.6z M25,18.6h4c0-5.5-4.5-10-10-10v4C22.3,12.6,25,15.3,25,18.6
	C25,18.6,25,18.6,25,18.6z"/>
</svg>
